<svg width="32" height="32" viewBox="0 0 32 32" fill="none" xmlns="http://www.w3.org/2000/svg">
<path fill-rule="evenodd" clip-rule="evenodd" d="M0 0V32H32V0H0ZM6 28.4702C6 28.984 6.00615 29.494 6.01826 30H25.9817C25.9939 29.494 26 28.984 26 28.4702C26 27.9767 25.9943 27.4865 25.9831 27H19V25H25.9053C25.8499 23.9943 25.7708 23.0075 25.6696 22.0431L19.2873 23.9578L18.7127 22.0422L25.4217 20.0294C24.9378 16.6129 24.1696 13.5294 23.1917 10.9454C22.7294 9.72363 22.223 8.621 21.6824 7.65177C21.53 7.98011 21.3678 8.37709 21.2045 8.81399C20.9231 9.56731 20.6648 10.3667 20.4756 10.9825C20.3814 11.2893 20.3051 11.5481 20.2525 11.7297C20.2262 11.8205 20.2059 11.8918 20.1922 11.9401L20.1768 11.9947L20.1731 12.0082L19.7843 13.4114L18.6152 12.55C17.7318 11.8992 16.8642 11.5915 16 11.5915C15.1358 11.5915 14.2682 11.8992 13.3848 12.5501L12.2157 13.4115L11.8269 12.0082L11.8232 11.9948L11.8078 11.9401C11.7941 11.8919 11.7738 11.8205 11.7475 11.7297C11.6949 11.5482 11.6186 11.2893 11.5244 10.9825C11.3352 10.3667 11.0769 9.56732 10.7955 8.814C10.6322 8.3771 10.47 7.98011 10.3176 7.65177C9.777 8.621 9.27061 9.72363 8.80826 10.9454C7.83045 13.5294 7.06222 16.6129 6.57825 20.0294L13.2873 22.0422L12.7127 23.9578L6.33039 22.0431C6.22916 23.0075 6.1501 23.9943 6.09474 25H13V27H6.01686C6.00567 27.4865 6 27.9767 6 28.4702ZM30 30H27.9823C27.994 29.4935 28 28.9834 28 28.4702C28 27.9771 27.9945 27.4869 27.9836 27H29V25H27.9082C27.8439 23.794 27.7465 22.6117 27.618 21.4586L29.2873 20.9578L28.7127 19.0422L27.3586 19.4484C26.8539 16.0191 26.0683 12.896 25.0623 10.2376C24.4035 8.49669 23.6452 6.94172 22.7998 5.62533C22.6774 5.43475 22.4659 5.19249 22.1253 5.07077C21.7597 4.94014 21.4172 5.00844 21.1698 5.12587C20.7613 5.31977 20.4888 5.70118 20.3329 5.94334C19.9724 6.50316 19.6238 7.33044 19.331 8.11402C19.0575 8.84618 18.8083 9.60794 18.6187 10.2175C17.7952 9.81509 16.9203 9.59151 16 9.59151C15.0797 9.59151 14.2048 9.8151 13.3813 10.2175C13.1917 9.60796 12.9425 8.84619 12.669 8.11403C12.3762 7.33045 12.0276 6.50317 11.6671 5.94334C11.5112 5.70119 11.2387 5.31977 10.8302 5.12587C10.5828 5.00845 10.2403 4.94014 9.87472 5.07077C9.5341 5.19248 9.32264 5.43475 9.20025 5.62533C8.35482 6.94172 7.59649 8.49669 6.93771 10.2376C5.93173 12.896 5.14611 16.0191 4.64143 19.4484L3.28735 19.0422L2.71265 20.9578L4.38198 21.4586C4.25354 22.6117 4.15613 23.794 4.09182 25H3V27H4.01636C4.0055 27.4869 4 27.9771 4 28.4702C4 28.9834 4.00595 29.4935 4.01771 30H2V2H30V30Z" fill="black"/>
</svg>
