<svg xmlns="http://www.w3.org/2000/svg" width="10" height="12">
  <path fill="#333" fill-rule="evenodd" d="M9.37 3.81H.26a.25.25 0 0 1-.18-.07.25.25 0 0 1-.08-.19v-.77a1 1 0 0 1 .3-.73 1 1 0 0 1 .73-.3h1.03V.63c0-.07.03-.13.08-.18a.25.25 0 0 1 .18-.07h.86a.25.25 0 0 1 .26.26v1.11h2.75V.63a.25.25 0 0 1 .26-.26h.85c.08 0 .14.03.19.08.05.05.07.11.07.18v1.12H8.6a1 1 0 0 1 .73.3c.2.2.3.44.3.73v.77a.25.25 0 0 1-.26.26zM.26 4.5h9.1c.08 0 .14.03.19.08.05.05.07.1.07.18v5.58a1 1 0 0 1-.3.73 1 1 0 0 1-.73.3H1.03a1 1 0 0 1-.73-.3 1 1 0 0 1-.3-.73V4.76c0-.07.03-.13.08-.18a.25.25 0 0 1 .18-.08zm2.49 4.38a.25.25 0 0 0-.08-.18.25.25 0 0 0-.18-.07h-.86a.25.25 0 0 0-.18.07.25.25 0 0 0-.08.18v.86c0 .07.03.13.08.18.05.05.11.08.18.08h.86c.07 0 .13-.03.18-.08a.25.25 0 0 0 .08-.18v-.86zm0-2.75a.25.25 0 0 0-.08-.18.25.25 0 0 0-.18-.07h-.86a.25.25 0 0 0-.18.07.25.25 0 0 0-.08.18V7c0 .07.03.13.08.18.05.05.11.08.18.08h.86c.07 0 .13-.03.18-.08A.25.25 0 0 0 2.75 7v-.86zM5.5 8.88a.25.25 0 0 0-.08-.18.25.25 0 0 0-.18-.07h-.86a.25.25 0 0 0-.18.07.25.25 0 0 0-.08.18v.86c0 .07.03.13.08.18.05.05.11.08.18.08h.86c.07 0 .13-.03.18-.08a.25.25 0 0 0 .08-.18v-.86zm0-2.75a.25.25 0 0 0-.08-.18.25.25 0 0 0-.18-.07h-.86a.25.25 0 0 0-.18.07.25.25 0 0 0-.08.18V7c0 .07.03.13.08.18.05.05.11.08.18.08h.86c.07 0 .13-.03.18-.08A.25.25 0 0 0 5.5 7v-.86zm2.75 2.75a.25.25 0 0 0-.08-.18.25.25 0 0 0-.18-.07h-.86a.25.25 0 0 0-.18.07.25.25 0 0 0-.08.18v.86c0 .07.03.13.08.18.05.05.11.08.18.08H8c.07 0 .13-.03.18-.08a.25.25 0 0 0 .08-.18v-.86zm0-2.75a.25.25 0 0 0-.08-.18.25.25 0 0 0-.18-.07h-.86a.25.25 0 0 0-.18.07.25.25 0 0 0-.08.18V7c0 .07.03.13.08.18.05.05.11.08.18.08H8c.07 0 .13-.03.18-.08A.25.25 0 0 0 8.25 7v-.86z" opacity=".63"/>
</svg>
