<svg xmlns="http://www.w3.org/2000/svg" width="23" height="27">
  <path fill="#FFF" fill-rule="evenodd" d="M20.44 3.5c.67 0 1.25.24 1.72.71.48.47.71 1.05.71 1.73V23.8c0 .68-.23 1.26-.7 1.73-.48.47-1.06.71-1.73.71H2.56c-.67 0-1.25-.24-1.72-.71a2.35 2.35 0 0 1-.71-1.73V5.94c0-.68.23-1.26.7-1.73a2.35 2.35 0 0 1 1.73-.71H5V.86c0-.17.06-.31.18-.43A.59.59 0 0 1 5.6.25h2.03c.17 0 .31.06.43.18s.18.26.18.43V3.5h6.5V.86c0-.17.06-.31.18-.43a.59.59 0 0 1 .43-.18h2.03c.17 0 .31.06.43.18s.18.26.18.43V3.5h2.44zm-.3 20.31c.06 0 .13-.03.2-.1.06-.07.1-.13.1-.2V8.38H2.56V23.5c0 .07.04.13.1.2.07.07.14.1.2.1h17.27z"/>
</svg>
