<svg xmlns="http://www.w3.org/2000/svg" width="20" height="20" viewBox="0 0 20 20">
  <path fill="#FF8174" fill-rule="evenodd" d="M323.999969,3182.00003 L330.687453,3188.75001 C330.895786,3188.91668 330.999952,3189.14584 330.999952,3189.43751 C330.999952,3189.72918 330.895786,3189.95834 330.687453,3190.12501 L329.124957,3191.68751 C328.95829,3191.89584 328.729125,3192 328.437458,3192 C328.145792,3192 327.916627,3191.89584 327.74996,3191.68751 L320.999976,3185.00002 L314.249992,3191.68751 C314.083326,3191.89584 313.85416,3192 313.562494,3192 C313.270828,3192 313.041662,3191.89584 312.874996,3191.68751 L311.312499,3190.12501 C311.104167,3189.95834 311,3189.72918 311,3189.43751 C311,3189.14584 311.104167,3188.91668 311.312499,3188.75001 L317.999983,3182.00003 L311.312499,3175.25004 C311.104167,3175.08338 311,3174.85421 311,3174.56255 C311,3174.27088 311.104167,3174.04171 311.312499,3173.87505 L312.874996,3172.31255 C313.041662,3172.10422 313.270828,3172.00005 313.562494,3172.00005 C313.85416,3172.00005 314.083326,3172.10422 314.249992,3172.31255 L320.999976,3179.00004 L327.74996,3172.31255 C327.916627,3172.10422 328.145792,3172.00005 328.437458,3172.00005 C328.729125,3172.00005 328.95829,3172.10422 329.124957,3172.31255 L330.687453,3173.87505 C330.895786,3174.04171 330.999952,3174.27088 330.999952,3174.56255 C330.999952,3174.85421 330.895786,3175.08338 330.687453,3175.25004 L323.999969,3182.00003 Z" transform="translate(-311 -3172)"/>
</svg>
