<svg xmlns="http://www.w3.org/2000/svg" width="16" height="16">
  <path fill="#292858" fill-rule="evenodd" d="M15.75 7.25a4.5 4.5 0 0 1-1.22 3.28A4.7 4.7 0 0 1 11 11.84c-.54 0-.95-.07-1.22-.21-.35-.2-.56-.52-.62-.97-.3.4-.67.72-1.13.97-.46.25-.92.37-1.37.37a2.7 2.7 0 0 1-2.14-.87 3.39 3.39 0 0 1-.77-2.32c0-.91.2-1.74.58-2.47.38-.73.9-1.3 1.54-1.7.65-.4 1.35-.6 2.1-.6.46 0 .86.07 1.22.24.35.17.62.4.81.72l.06-.44c.02-.1.07-.18.14-.23a.4.4 0 0 1 .24-.08h1.22c.12 0 .22.05.3.14.07.1.1.2.07.3l-.87 4.65c-.09.34-.1.58-.04.74.07.15.24.23.54.23.68 0 1.28-.26 1.78-.78.54-.58.81-1.34.81-2.28 0-1.12-.3-2.11-.88-2.97a5.05 5.05 0 0 0-2.21-1.87c-.96-.44-2-.66-3.14-.66A6.3 6.3 0 0 0 1.75 8 6.3 6.3 0 0 0 8 14.25c1.35 0 2.58-.4 3.69-1.19a.3.3 0 0 1 .25-.08c.1.01.18.06.25.15l.47.56c.06.08.08.18.07.3a.36.36 0 0 1-.14.26A8.08 8.08 0 0 1 8 15.75 7.83 7.83 0 0 1 .25 8 7.83 7.83 0 0 1 8.03.25c1.42 0 2.71.3 3.9.88a6.64 6.64 0 0 1 3.83 6.12zm-8.56 3.03c.62 0 1.17-.3 1.64-.89.47-.6.7-1.28.7-2.05 0-.48-.12-.86-.37-1.15-.25-.3-.6-.44-1.07-.44-.37 0-.74.12-1.09.36-.35.24-.65.58-.88 1.02-.22.45-.34.96-.34 1.53 0 .52.13.92.38 1.2.25.28.59.42 1.03.42z"/>
</svg>