<svg xmlns="http://www.w3.org/2000/svg" width="14" height="14">
  <path fill="#292858" fill-rule="evenodd" d="M7 3.4a3.6 3.6 0 0 1 1.8 6.7 3.5 3.5 0 0 1-1.8.5 3.6 3.6 0 0 1-1.8-6.7A3.5 3.5 0 0 1 7 3.4zm0 5.94c.65 0 1.2-.23 1.66-.68.45-.46.68-1.01.68-1.66 0-.65-.23-1.2-.68-1.66A2.26 2.26 0 0 0 7 4.66c-.65 0-1.2.23-1.66.68A2.26 2.26 0 0 0 4.66 7c0 .65.23 1.2.68 1.66.46.45 1.01.68 1.66.68zm4.6-6.09a.97.97 0 0 1-.27.6.76.76 0 0 1-.58.24.81.81 0 0 1-.6-.25.81.81 0 0 1-.24-.59c0-.23.08-.43.25-.6a.81.81 0 0 1 .59-.24c.23 0 .43.08.6.25.16.16.24.36.24.59zm2.37.84a92.88 92.88 0 0 1-.02 5.83 5.9 5.9 0 0 1-.26 1.55 3.64 3.64 0 0 1-2.22 2.22 5.9 5.9 0 0 1-1.55.26c-.6.03-1.57.05-2.92.05-1.35 0-2.33-.02-2.92-.05a5.1 5.1 0 0 1-1.55-.3 3.33 3.33 0 0 1-1.36-.82 3.64 3.64 0 0 1-.86-1.36 5.9 5.9 0 0 1-.26-1.55C.02 9.32 0 8.35 0 7c0-1.35.02-2.33.05-2.92.03-.6.12-1.11.26-1.55A3.64 3.64 0 0 1 2.53.31 5.9 5.9 0 0 1 4.08.05C4.68.02 5.65 0 7 0c1.35 0 2.33.02 2.92.05.6.03 1.11.12 1.55.26a3.64 3.64 0 0 1 2.22 2.22c.14.44.24.96.28 1.56zm-1.5 7.04c.12-.36.2-.92.25-1.7.02-.45.03-1.1.03-1.93v-1c0-.85-.01-1.5-.03-1.94a6.27 6.27 0 0 0-.25-1.68c-.25-.65-.7-1.1-1.35-1.35-.33-.12-.9-.2-1.68-.25a45.6 45.6 0 0 0-1.94-.03h-1c-.83 0-1.48.01-1.94.03-.77.04-1.33.13-1.69.25-.64.25-1.09.7-1.34 1.35-.12.33-.2.9-.25 1.68-.02.46-.03 1.1-.03 1.94v1c0 .83.01 1.48.03 1.94.04.77.13 1.33.25 1.69.27.64.72 1.09 1.34 1.34.36.12.92.2 1.7.25.45.02 1.1.03 1.93.03h1c.85 0 1.5-.01 1.94-.03.79-.04 1.35-.13 1.68-.25.65-.27 1.1-.72 1.35-1.34z"/>
</svg>