<svg xmlns="http://www.w3.org/2000/svg" width="27" height="27">
  <path fill="#FFF" fill-rule="evenodd" d="M16.45 10.3a7.13 7.13 0 0 1 .5 9.5c-.17.2-.9.95-2.18 2.24l-2.13 2.13a7.05 7.05 0 0 1-10.05 0 7.05 7.05 0 0 1 0-10.05l3.2-3.2c.2-.2.42-.26.68-.16.25.1.38.29.38.56 0 .64.08 1.29.25 1.93.04.2-.03.39-.2.56L4.6 16.14a4 4 0 0 0-1.27 3c0 1.19.42 2.2 1.25 3.02a4.11 4.11 0 0 0 3.02 1.25 4 4 0 0 0 3-1.27l3.85-3.81a4.07 4.07 0 0 0 1.22-3c0-1.18-.4-2.2-1.22-3.04-.33-.34-.72-.61-1.16-.82-.27-.13-.4-.34-.36-.6.07-.62.32-1.14.76-1.58l.2-.2c.24-.2.48-.24.72-.1a7 7 0 0 1 1.83 1.31zm7.97-7.97a7.05 7.05 0 0 1 0 10.05l-3.2 3.2c-.2.2-.43.26-.69.16a.56.56 0 0 1-.38-.56c0-.64-.08-1.29-.25-1.93-.04-.2.03-.39.2-.56l2.29-2.33a4 4 0 0 0 1.27-3c0-1.19-.42-2.2-1.25-3.02a4.11 4.11 0 0 0-3.02-1.25 4 4 0 0 0-3 1.27l-3.85 3.81a4.07 4.07 0 0 0-1.22 3c0 1.18.4 2.2 1.22 3.04.33.34.72.61 1.16.82.27.13.4.34.36.6-.07.62-.32 1.14-.76 1.58l-.2.2c-.24.2-.48.24-.72.1a7 7 0 0 1-3.6-4.29 7.13 7.13 0 0 1 1.27-6.52c.17-.2.9-.95 2.18-2.24l2.13-2.13a7.05 7.05 0 0 1 10.05 0z"/>
</svg>