<svg xmlns="http://www.w3.org/2000/svg" width="18" height="14">
  <path fill="#292858" fill-rule="evenodd" d="M17.5 0a.5.5 0 0 1 .34.14c.1.1.16.21.16.36v10.81c0 .21-.06.4-.17.57-.12.16-.27.29-.46.37l-4.75 1.66c-.41.12-.83.12-1.25 0L6 12 .69 13.97A.59.59 0 0 1 .5 14a.5.5 0 0 1-.34-.14.46.46 0 0 1-.16-.36V2.69c0-.21.06-.4.17-.56.12-.17.27-.3.45-.38L5.37.09a2.17 2.17 0 0 1 1.25 0L12 2 17.31.03A.59.59 0 0 1 17.5 0zM7 1.81v8.94l4 1.44V3.25L7 1.81zM1.5 12.06l4-1.47V1.66l-4 1.37v9.03zm15-1.1V1.95l-4 1.47v8.93l4-1.37z"/>
</svg>