<svg xmlns="http://www.w3.org/2000/svg" width="16" height="16">
  <path fill="#FFFFFF" fill-rule="evenodd" d="M14.9.72h-.03c.34.06.6.22.82.48.2.26.31.57.31.93 0 2.52-.64 4.85-1.9 7a13.53 13.53 0 0 1-4.98 4.96A13.66 13.66 0 0 1 2.1 16a1.39 1.39 0 0 1-1.37-1.13l-.69-2.93c-.08-.34-.05-.66.11-.97.16-.31.4-.53.73-.66l3.16-1.37c.3-.13.6-.15.9-.06.32.08.58.23.79.46l1 1.25a9.34 9.34 0 0 0 3.9-3.87l-1.25-1c-.25-.21-.4-.47-.48-.78-.07-.31-.05-.62.08-.9L10.3.87c.15-.34.37-.58.67-.74.3-.16.62-.2.96-.1l2.97.68zM2.17 14.5c2.23 0 4.3-.56 6.21-1.69a12.58 12.58 0 0 0 4.44-4.43 12.07 12.07 0 0 0 1.69-6.22l-2.84-.66-1.32 3.1 2.13 1.71A12.42 12.42 0 0 1 10.02 10c-.93.92-2.17 1.74-3.7 2.47l-1.73-2.13-3.09 1.32.66 2.84z"/>
</svg>