<svg xmlns="http://www.w3.org/2000/svg" width="24" height="24">
  <path fill="#FFF" fill-rule="evenodd" d="M23.86 21.98c.1.1.14.22.14.38s-.05.3-.14.42l-1.08 1.03a.58.58 0 0 1-.42.19.45.45 0 0 1-.38-.19l-5.71-5.67a.62.62 0 0 1-.15-.37v-.66c-.87.75-1.85 1.34-2.95 1.76-1.1.42-2.23.63-3.42.63a9.47 9.47 0 0 1-4.9-1.31 9.85 9.85 0 0 1-3.54-3.54A9.47 9.47 0 0 1 0 9.75c0-1.78.44-3.41 1.31-4.9a9.85 9.85 0 0 1 3.54-3.54A9.47 9.47 0 0 1 9.75 0c1.78 0 3.41.44 4.9 1.31a9.85 9.85 0 0 1 3.54 3.54 9.47 9.47 0 0 1 1.31 4.9c0 1.19-.21 2.33-.63 3.42-.42 1.1-1.01 2.08-1.76 2.95h.66a.5.5 0 0 1 .37.15l5.72 5.71zM9.75 17.25a7.45 7.45 0 0 0 7.5-7.5 7.45 7.45 0 0 0-7.5-7.5 7.45 7.45 0 0 0-7.5 7.5 7.45 7.45 0 0 0 7.5 7.5z" opacity=".41"/>
</svg>