<svg xmlns="http://www.w3.org/2000/svg" width="16" height="14">
  <path fill="#292858" fill-rule="evenodd" d="M14.34 3.75a9.27 9.27 0 0 1-1.06 4.75 9.02 9.02 0 0 1-8.25 5A9.1 9.1 0 0 1 0 12.03a6.5 6.5 0 0 0 4.87-1.37c-.72 0-1.36-.22-1.92-.64A3.26 3.26 0 0 1 1.81 8.4l.6.03c.29 0 .58-.03.87-.1A3.3 3.3 0 0 1 1.41 7.2c-.5-.6-.75-1.3-.75-2.06v-.07c.45.27.94.42 1.46.44-.43-.31-.79-.7-1.06-1.19a3.15 3.15 0 0 1 .06-3.22 9.05 9.05 0 0 0 6.75 3.44c-.04-.25-.06-.5-.06-.75A3.25 3.25 0 0 1 9.44.94c.5-.3 1.04-.44 1.62-.44.48 0 .92.1 1.33.28.4.19.77.44 1.08.75.75-.14 1.45-.4 2.1-.78a3.26 3.26 0 0 1-1.45 1.81A7.05 7.05 0 0 0 16 2.03a7.21 7.21 0 0 1-1.66 1.72z"/>
</svg>