<svg xmlns="http://www.w3.org/2000/svg" width="14" height="14">
  <path fill="#292858" fill-rule="evenodd" d="M12.6 0c.39 0 .72.14 1 .4.26.28.4.61.4 1v11.2c0 .39-.14.72-.4 1-.28.26-.61.4-1 .4H1.4c-.39 0-.72-.14-1-.4-.26-.28-.4-.61-.4-1V1.4c0-.39.14-.72.4-1 .28-.26.61-.4 1-.4h11.2zm-.82 4.66c.06-1.34-.43-2.01-1.47-2.03-1.4-.05-2.34.75-2.84 2.37.37-.17.7-.2.97-.12.35.08.5.36.47.84-.05.33-.27.83-.7 1.48-.4.66-.73 1-.94 1.03-.22.04-.43-.26-.61-.89a31.1 31.1 0 0 1-.57-2.96c-.18-1.17-.66-1.71-1.43-1.63-.27.02-.62.2-1.04.53-.27.21-.7.58-1.3 1.13l-.66.56.5.62c.43-.3.7-.46.78-.46.25 0 .49.29.72.87.14.4.4 1.24.75 2.53l.3 1.22c.43 1.08.93 1.63 1.5 1.63.97 0 2.13-.9 3.5-2.7 1.34-1.7 2.03-3.04 2.07-4.02z"/>
</svg>