<svg xmlns="http://www.w3.org/2000/svg" width="23" height="27" viewBox="0 0 23 27">
  <path fill="#FFF" fill-rule="evenodd" d="M41.4374516,22.5000465 C42.114533,22.5000465 42.690053,22.7370254 43.16401,23.2109823 C43.6379669,23.6849392 43.8749458,24.2604592 43.8749458,24.9375407 L43.8749458,42.8124981 C43.8749458,43.4895795 43.6379669,44.0650995 43.16401,44.5390564 C42.690053,45.0130134 42.114533,45.2499923 41.4374516,45.2499923 L23.5624942,45.2499923 C22.8854127,45.2499923 22.3098928,45.0130134 21.8359358,44.5390564 C21.3619789,44.0650995 21.125,43.4895795 21.125,42.8124981 L21.125,24.9375407 C21.125,24.2604592 21.3619789,23.6849392 21.8359358,23.2109823 C22.3098928,22.7370254 22.8854127,22.5000465 23.5624942,22.5000465 L25.9999884,22.5000465 L25.9999884,19.8594278 C25.9999884,19.6901576 26.0592333,19.5462772 26.1777223,19.4277882 C26.2962114,19.3092991 26.4400918,19.2500542 26.6093619,19.2500542 L28.6406071,19.2500542 C28.8098773,19.2500542 28.9537576,19.3092991 29.0722467,19.4277882 C29.1907357,19.5462772 29.2499806,19.6901576 29.2499806,19.8594278 L29.2499806,22.5000465 L35.7499651,22.5000465 L35.7499651,19.8594278 C35.7499651,19.6901576 35.80921,19.5462772 35.9276991,19.4277882 C36.0461881,19.3092991 36.1900685,19.2500542 36.3593387,19.2500542 L38.3905838,19.2500542 C38.559854,19.2500542 38.7037344,19.3092991 38.8222234,19.4277882 C38.9407125,19.5462772 38.9999574,19.6901576 38.9999574,19.8594278 L38.9999574,22.5000465 L41.4374516,22.5000465 Z M41.1327648,42.8124981 C41.2004727,42.8124981 41.2681814,42.7786437 41.3358893,42.7109358 C41.4035972,42.6432279 41.4374516,42.5755192 41.4374516,42.5078113 L41.4374516,27.3750349 L23.5624942,27.3750349 L23.5624942,42.5078113 C23.5624942,42.5755192 23.5963485,42.6432279 23.6640564,42.7109358 C23.7317644,42.7786437 23.799473,42.8124981 23.867181,42.8124981 L41.1327648,42.8124981 Z" transform="translate(-21 -19)"/>
</svg>
