<svg xmlns="http://www.w3.org/2000/svg" width="31" height="27" viewBox="0 0 31 27">
    <path fill="#FFF" fill-rule="evenodd" d="M27.8281013,44.6406187 C27.726539,44.6067644 27.6503673,44.5475202 27.5995862,44.4628848 C27.5488051,44.3782493 27.5234145,44.268224 27.5234145,44.1328074 L34.6835537,19.554741 C34.717408,19.4531788 34.7851159,19.3685433 34.8866782,19.3008354 C34.9882404,19.2331275 35.0898027,19.2161999 35.191365,19.2500542 L37.171829,19.8594278 C37.2733913,19.8594278 37.3495629,19.9102089 37.4003441,20.0117712 C37.4511252,20.1133334 37.4765158,20.2318225 37.4765158,20.3672391 L30.3163766,44.9453055 C30.2825222,45.0468677 30.2148143,45.1315032 30.1132521,45.1992111 C30.0116898,45.266919 29.9101276,45.2838466 29.8085653,45.2499923 L27.8281013,44.6406187 Z M25.5937316,39.1054757 C25.4921693,39.1731836 25.3906071,39.2070379 25.2890448,39.2070379 C25.1874826,39.2070379 25.0859203,39.1731836 24.984358,39.1054757 L18.0273434,32.55471 C17.9257811,32.4531478 17.875,32.3515855 17.875,32.2500232 C17.875,32.148461 17.9257811,32.0468987 18.0273434,31.9453365 L24.984358,25.3945708 C25.0859203,25.3268629 25.1874826,25.2930086 25.2890448,25.2930086 C25.3906071,25.2930086 25.4921693,25.3268629 25.5937316,25.3945708 L26.9648221,26.8672236 C27.03253,26.9687858 27.0663843,27.0788119 27.0663843,27.1973009 C27.0663843,27.31579 27.0156032,27.4088892 26.9140409,27.4765971 L21.5312413,32.2500232 L26.9140409,37.0234494 C27.0156032,37.0911573 27.0663843,37.1842565 27.0663843,37.3027456 C27.0663843,37.4212346 27.03253,37.5312607 26.9648221,37.6328229 L25.5937316,39.1054757 Z M40.0155722,39.1054757 C39.91401,39.1731836 39.8124477,39.2070379 39.7108854,39.2070379 C39.6093232,39.2070379 39.5077609,39.1731836 39.4061987,39.1054757 L38.0351082,37.6328229 C37.9674003,37.5312607 37.9335459,37.4212346 37.9335459,37.3027456 C37.9335459,37.1842565 37.9843271,37.0911573 38.0858893,37.0234494 L43.468689,32.2500232 L38.0858893,27.4765971 C37.9843271,27.4088892 37.9335459,27.31579 37.9335459,27.1973009 C37.9335459,27.0788119 37.9674003,26.9687858 38.0351082,26.8672236 L39.4061987,25.3945708 C39.5077609,25.3268629 39.6093232,25.2930086 39.7108854,25.2930086 C39.8124477,25.2930086 39.91401,25.3268629 40.0155722,25.3945708 L46.9725869,31.9453365 C47.0741491,32.0468987 47.1249303,32.148461 47.1249303,32.2500232 C47.1249303,32.3515855 47.0741491,32.4531478 46.9725869,32.55471 L40.0155722,39.1054757 Z" transform="translate(-17 -19)"/>
</svg>
