<svg xmlns="http://www.w3.org/2000/svg" width="31" height="24" viewBox="0 0 31 24">
  <path fill="#FFF" fill-rule="evenodd" d="M44.8905606,38.85157 C45.2291017,39.4947979 45.6353507,40.1549526 46.1093077,40.832034 C46.4817024,41.305991 46.7186812,41.5768242 46.8202435,41.6445321 C46.9895137,41.8138023 47.0910759,42.0169268 47.1249303,42.2539056 C47.1587846,42.4908845 47.1249303,42.7109358 47.023368,42.9140603 C46.9218057,43.1171848 46.7779261,43.286455 46.5917284,43.4218716 C46.4055307,43.5572882 46.1939432,43.6249961 45.9569643,43.6249961 C43.756449,43.6249961 41.6405683,42.9648414 39.6093232,41.6445321 C38.5937006,41.881511 37.578078,42 36.5624554,42 C34.3957937,42 32.4407202,41.5429698 30.6972351,40.6289095 C28.9537499,39.7148492 27.6757579,38.5130289 26.8632598,37.0234494 C26.3554485,36.9557415 25.864564,36.871106 25.3906071,36.7695437 C23.3932163,38.0898531 21.2773356,38.7500077 19.042966,38.7500077 C18.8059871,38.7500077 18.5943996,38.6822998 18.4082019,38.5468832 C18.2220041,38.4114666 18.0781245,38.2421965 17.9765623,38.0390719 C17.875,37.8359474 17.8496094,37.6158961 17.9003906,37.3789173 C17.9511717,37.1419384 18.052734,36.9472777 18.2050773,36.7949343 C18.3574207,36.6425909 18.5859358,36.3632947 18.8906226,35.9570457 C19.3645795,35.2799642 19.7708286,34.6198095 20.1093697,33.9765816 C18.6197901,32.5208557 17.875,30.862006 17.875,29.000031 C17.875,27.544305 18.3489569,26.1901421 19.2968716,24.9375407 C20.2447863,23.6849392 21.5227775,22.6947072 23.1308468,21.9668446 C24.7389162,21.238982 26.5077919,20.8750504 28.4374748,20.8750504 C30.6041366,20.8750504 32.567673,21.3320805 34.3280858,22.2461408 C36.0884985,23.1602012 37.3749535,24.3620215 38.1874516,25.851601 C39.846302,26.0547255 41.3612721,26.5371462 42.7323626,27.2988632 C44.1034531,28.0605801 45.1783206,29.0169578 45.9569643,30.167997 C46.735608,31.3190361 47.1249303,32.55471 47.1249303,33.8750194 C47.1249303,35.7369944 46.3801401,37.3958441 44.8905606,38.85157 Z M24.9335769,34.1797061 L25.9491995,34.3828307 C26.7616976,34.5859552 27.5911224,34.6875174 28.4374748,34.6875174 C29.8932008,34.6875174 31.2389007,34.425148 32.4745746,33.9004099 C33.7102484,33.3756719 34.7004805,32.6816628 35.4452706,31.8183836 C36.1900608,30.9551045 36.5624554,30.0156536 36.5624554,29.000031 C36.5624554,27.9844084 36.1900608,27.0449575 35.4452706,26.1816783 C34.7004805,25.3183991 33.7102484,24.6243901 32.4745746,24.0996521 C31.2389007,23.574914 29.8932008,23.3125446 28.4374748,23.3125446 C26.9817489,23.3125446 25.6360489,23.574914 24.4003751,24.0996521 C23.1647012,24.6243901 22.1744692,25.3183991 21.429679,26.1816783 C20.6848889,27.0449575 20.3124942,27.9844084 20.3124942,29.000031 C20.3124942,30.1849237 20.8203055,31.268255 21.8359281,32.2500232 L23.1054563,33.4687703 L22.2929582,35.0937665 L21.8867092,35.8047023 C22.6314993,35.5677234 23.3593619,35.2122555 24.0702977,34.7382986 L24.9335769,34.1797061 Z M43.1640022,37.1250116 C44.1796248,36.1432434 44.6874361,35.0514491 44.6874361,33.8496288 C44.6874361,32.6478085 44.1457704,31.5475512 43.0624399,30.5488554 C41.9791095,29.5501596 40.608019,28.8646144 38.9491685,28.4922197 L38.9999496,29.000031 C38.9999496,30.3541947 38.6021644,31.6067954 37.8065931,32.7578345 C37.0110218,33.9088737 35.9192276,34.8652514 34.5312103,35.6269683 C33.143193,36.3886853 31.6028316,36.8541792 29.9101276,37.0234494 C30.6549177,37.8020931 31.6112954,38.4199304 32.7792613,38.8769606 C33.9472273,39.3339907 35.2082917,39.5625058 36.5624554,39.5625058 C37.4088079,39.5625058 38.2382327,39.4609436 39.0507308,39.257819 L40.0663533,39.0546945 L40.9296325,39.6132869 C41.6405683,40.0872439 42.3684309,40.4427118 43.1132211,40.6796906 L42.706972,39.9179737 L41.9452551,38.3437587 L43.1640022,37.1250116 Z" transform="translate(-17 -20)"/>
</svg>
