<svg xmlns="http://www.w3.org/2000/svg" width="31" height="27" viewBox="0 0 31 27">
  <path fill="#FFF" fill-rule="evenodd" d="M30.5195011,29.6601857 C30.4856468,29.4909155 30.5364279,29.3385721 30.6718445,29.2031555 C30.8072611,29.0677389 30.9596045,29.000031 31.1288747,29.000031 L33.8710556,29.000031 C34.0403258,29.000031 34.1926692,29.0677389 34.3280858,29.2031555 C34.4635024,29.3385721 34.5142835,29.4909155 34.4804292,29.6601857 L34.1757424,35.3476721 C34.141888,35.4830887 34.0657163,35.6100415 33.9472273,35.7285306 C33.8287383,35.8470196 33.7017854,35.9062645 33.5663688,35.9062645 L31.4335614,35.9062645 C31.2981448,35.9062645 31.171192,35.8470196 31.052703,35.7285306 C30.9342139,35.6100415 30.8580422,35.4830887 30.8241879,35.3476721 L30.5195011,29.6601857 Z M34.6327725,38.7500077 C34.6327725,39.325527 34.4211843,39.8248752 33.9980084,40.2480511 C33.5748326,40.6712269 33.0754843,40.8828152 32.4999651,40.8828152 C31.9244459,40.8828152 31.4250976,40.6712269 31.0019218,40.2480511 C30.578746,39.8248752 30.3671577,39.325527 30.3671577,38.7500077 C30.3671577,38.1744885 30.578746,37.6751403 31.0019218,37.2519644 C31.4250976,36.8287886 31.9244459,36.6172003 32.4999651,36.6172003 C33.0754843,36.6172003 33.5748326,36.8287886 33.9980084,37.2519644 C34.4211843,37.6751403 34.6327725,38.1744885 34.6327725,38.7500077 Z M34.6327725,20.4688013 L46.8202435,41.593751 C47.0910759,42.1354166 47.1757114,42.6855452 47.0741491,43.2441377 C46.9725869,43.8027301 46.7017544,44.276687 46.2616511,44.6660093 C45.8215477,45.0553315 45.2968096,45.2499923 44.6874361,45.2499923 L20.3124942,45.2499923 C19.7031206,45.2499923 19.1783826,45.0553315 18.7382792,44.6660093 C18.2981758,44.276687 18.0273434,43.8027301 17.9257811,43.2441377 C17.8242189,42.6855452 17.9088543,42.1354166 18.1796868,41.593751 L30.3671577,20.4688013 C30.6718445,19.9271357 31.1034841,19.5632048 31.6620765,19.3770071 C32.2206689,19.1908093 32.7792613,19.1908093 33.3378538,19.3770071 C33.8964462,19.5632048 34.3280858,19.9271357 34.6327725,20.4688013 Z M20.5663998,42.3554679 C20.4986919,42.4570302 20.4986919,42.5585924 20.5663998,42.6601547 C20.6341077,42.7617169 20.7187432,42.8124981 20.8203055,42.8124981 L44.1796248,42.8124981 C44.281187,42.8124981 44.3658225,42.7617169 44.4335304,42.6601547 C44.5012383,42.5585924 44.5012383,42.4570302 44.4335304,42.3554679 L32.7538708,22.1445786 C32.6861629,22.0430163 32.6015274,21.9922352 32.4999651,21.9922352 C32.3984029,21.9922352 32.3137674,22.0430163 32.2460595,22.1445786 L20.5663998,42.3554679 Z" transform="translate(-17 -19)"/>
</svg>
