<svg xmlns="http://www.w3.org/2000/svg" width="21" height="27" viewBox="0 0 21 27">
  <path fill="#FFF" fill-rule="evenodd" d="M41.5390177,24.2266049 C42.0129746,24.7005618 42.2499535,25.2760818 42.2499535,25.9531633 L42.2499535,42.8124981 C42.2499535,43.4895795 42.0129746,44.0650995 41.5390177,44.5390564 C41.0650608,45.0130134 40.4895408,45.2499923 39.8124593,45.2499923 L25.1874942,45.2499923 C24.5104127,45.2499923 23.9348928,45.0130134 23.4609358,44.5390564 C22.9869789,44.0650995 22.75,43.4895795 22.75,42.8124981 L22.75,21.6875484 C22.75,21.010467 22.9869789,20.434947 23.4609358,19.96099 C23.9348928,19.4870331 24.5104127,19.2500542 25.1874942,19.2500542 L35.5468445,19.2500542 C36.223926,19.2500542 36.7994459,19.4870331 37.2734029,19.96099 L41.5390177,24.2266049 Z M39.6093348,25.7500387 L35.749969,21.8906729 L35.749969,25.7500387 L39.6093348,25.7500387 Z M25.1874942,42.8124981 L39.8124593,42.8124981 L39.8124593,28.1875329 L34.5312219,28.1875329 C34.1926808,28.1875329 33.9049216,28.0690439 33.6679427,27.832065 C33.4309639,27.5950862 33.3124748,27.307327 33.3124748,26.9687858 L33.3124748,21.6875484 L25.1874942,21.6875484 L25.1874942,42.8124981 Z" transform="translate(-22 -19)"/>
</svg>
