<svg xmlns="http://www.w3.org/2000/svg" width="27" height="26" viewBox="0 0 27 26">
  <path fill="#FFF" fill-rule="evenodd" d="M32.499969,19.6563033 C34.768193,19.6563033 36.8671461,20.2233595 38.796829,21.3574711 C40.7265119,22.4915827 42.2584095,24.0234804 43.3925212,25.9531633 C44.5266328,27.8828462 45.093689,29.9817992 45.093689,32.2500232 C45.093689,34.5182473 44.5266328,36.6172003 43.3925212,38.5468832 C42.2584095,40.4765661 40.7265119,42.0084638 38.796829,43.1425754 C36.8671461,44.276687 34.768193,44.8437432 32.499969,44.8437432 C30.231745,44.8437432 28.1327919,44.276687 26.203109,43.1425754 C24.2734261,42.0084638 22.7415285,40.4765661 21.6074169,38.5468832 C20.4733052,36.6172003 19.906249,34.5182473 19.906249,32.2500232 C19.906249,29.9817992 20.4733052,27.8828462 21.6074169,25.9531633 C22.7415285,24.0234804 24.2734261,22.4915827 26.203109,21.3574711 C28.1327919,20.2233595 30.231745,19.6563033 32.499969,19.6563033 Z M32.499969,42.406249 C34.3280896,42.406249 36.0207937,41.9492189 37.5780819,41.0351586 C39.1353701,40.1210982 40.371044,38.8854244 41.2851043,37.3281361 C42.1991646,35.7708479 42.6561948,34.0781439 42.6561948,32.2500232 C42.6561948,30.4219026 42.1991646,28.7291986 41.2851043,27.1719104 C40.371044,25.6146221 39.1353701,24.3789483 37.5780819,23.4648879 C36.0207937,22.5508276 34.3280896,22.0937975 32.499969,22.0937975 C30.6718484,22.0937975 28.9791443,22.5508276 27.4218561,23.4648879 C25.8645679,24.3789483 24.628894,25.6146221 23.7148337,27.1719104 C22.8007734,28.7291986 22.3437432,30.4219026 22.3437432,32.2500232 C22.3437432,34.0781439 22.8007734,35.7708479 23.7148337,37.3281361 C24.628894,38.8854244 25.8645679,40.1210982 27.4218561,41.0351586 C28.9791443,41.9492189 30.6718484,42.406249 32.499969,42.406249 Z M32.499969,25.2422275 C33.0754882,25.2422275 33.5748365,25.4538157 33.9980123,25.8769916 C34.4211881,26.3001674 34.6327764,26.7995157 34.6327764,27.3750349 C34.6327764,27.9505541 34.4211881,28.4499024 33.9980123,28.8730782 C33.5748365,29.296254 33.0754882,29.5078423 32.499969,29.5078423 C31.9244498,29.5078423 31.4251015,29.296254 31.0019257,28.8730782 C30.5787499,28.4499024 30.3671616,27.9505541 30.3671616,27.3750349 C30.3671616,26.7995157 30.5787499,26.3001674 31.0019257,25.8769916 C31.4251015,25.4538157 31.9244498,25.2422275 32.499969,25.2422275 Z M35.3437122,38.1406342 C35.3437122,38.3099044 35.2844673,38.4537848 35.1659783,38.5722738 C35.0474892,38.6907628 34.9036088,38.7500077 34.7343387,38.7500077 L30.2655993,38.7500077 C30.0963292,38.7500077 29.9524488,38.6907628 29.8339597,38.5722738 C29.7154707,38.4537848 29.6562258,38.3099044 29.6562258,38.1406342 L29.6562258,36.9218871 C29.6562258,36.7526169 29.7154707,36.6087366 29.8339597,36.4902475 C29.9524488,36.3717585 30.0963292,36.3125136 30.2655993,36.3125136 L30.8749729,36.3125136 L30.8749729,33.0625213 L30.2655993,33.0625213 C30.0963292,33.0625213 29.9524488,33.0032764 29.8339597,32.8847874 C29.7154707,32.7662983 29.6562258,32.6224179 29.6562258,32.4531478 L29.6562258,31.2344007 C29.6562258,31.0651305 29.7154707,30.9212501 29.8339597,30.8027611 C29.9524488,30.684272 30.0963292,30.6250271 30.2655993,30.6250271 L33.5155916,30.6250271 C33.6848618,30.6250271 33.8287421,30.684272 33.9472312,30.8027611 C34.0657202,30.9212501 34.1249651,31.0651305 34.1249651,31.2344007 L34.1249651,36.3125136 L34.7343387,36.3125136 C34.9036088,36.3125136 35.0474892,36.3717585 35.1659783,36.4902475 C35.2844673,36.6087366 35.3437122,36.7526169 35.3437122,36.9218871 L35.3437122,38.1406342 Z" transform="translate(-19 -19)"/>
</svg>
