<svg xmlns="http://www.w3.org/2000/svg" width="27" height="27" viewBox="0 0 27 27">
  <path fill="#FFF" fill-rule="evenodd" d="M35.4452745,29.3047178 C36.2916269,30.1510702 36.8840729,31.1413022 37.222614,32.2754138 C37.5611551,33.4095254 37.6203992,34.5521008 37.4003479,35.70314 C37.1802966,36.8541792 36.6978759,37.8867286 35.9530858,38.8007889 C35.7838156,39.0039134 35.0559522,39.7487035 33.7694972,41.0351586 L31.6366898,43.167966 C30.7226295,44.0820263 29.6562258,44.6998636 28.4374787,45.0214772 C27.2187316,45.3430907 25.9999845,45.3430907 24.7812374,45.0214772 C23.5624903,44.6998636 22.4960866,44.0820263 21.5820263,43.167966 C20.667966,42.2539056 20.0501286,41.1875019 19.7285151,39.9687548 C19.4069015,38.7500077 19.4069015,37.5312607 19.7285151,36.3125136 C20.0501286,35.0937665 20.667966,34.0273628 21.5820263,33.1133024 L24.7812374,29.9140913 C24.9843619,29.7109668 25.212877,29.6601857 25.4667826,29.7617479 C25.7206883,29.8633102 25.8476411,30.0495079 25.8476411,30.3203403 C25.8476411,30.9635682 25.9322766,31.6067954 26.1015468,32.2500232 C26.1354011,32.4531478 26.0676924,32.6393455 25.8984222,32.8086157 L23.6132714,35.1445476 C22.766919,35.9570457 22.3437432,36.9557415 22.3437432,38.1406342 C22.3437432,39.325527 22.758456,40.3326865 23.5878809,41.1621114 C24.4173057,41.9915362 25.4244653,42.406249 26.609358,42.406249 C27.7942508,42.406249 28.7929466,41.9830732 29.6054447,41.1367208 L33.4648105,37.3281361 C34.2773085,36.5156381 34.6835575,35.5169423 34.6835575,34.3320495 C34.6835575,33.1471568 34.2773085,32.1315342 33.4648105,31.2851818 C33.1262693,30.9466407 32.7369479,30.6758082 32.2968445,30.4726837 C32.0260121,30.3372671 31.9075222,30.1341426 31.9413766,29.8633102 C32.0090845,29.2539366 32.2629901,28.7291986 32.7030935,28.2890952 L32.906218,28.0859707 C33.1431969,27.8828462 33.380175,27.8489918 33.6171538,27.9844084 C34.2942353,28.3229495 34.9036088,28.7630521 35.4452745,29.3047178 Z M43.4179117,21.3320805 C44.331972,22.2461408 44.9498094,23.3125446 45.2714229,24.5312916 C45.5930365,25.7500387 45.5930365,26.9687858 45.2714229,28.1875329 C44.9498094,29.40628 44.331972,30.4726837 43.4179117,31.3867441 L40.2187006,34.5859552 C40.0155761,34.7890797 39.787061,34.8398608 39.5331554,34.7382986 C39.2792497,34.6367363 39.1522969,34.4505386 39.1522969,34.1797061 C39.1522969,33.5364783 39.0676614,32.8932511 38.8983913,32.2500232 C38.8645369,32.0468987 38.9322456,31.860701 39.1015158,31.6914308 L41.3866666,29.3554989 C42.233019,28.5430008 42.6561948,27.544305 42.6561948,26.3594123 C42.6561948,25.1745195 42.241482,24.16736 41.4120571,23.3379351 C40.5826323,22.5085103 39.5754727,22.0937975 38.39058,22.0937975 C37.2056872,22.0937975 36.2069914,22.5169733 35.3944934,23.3633257 L31.5351276,27.1719104 C30.7226295,27.9844084 30.3163805,28.9831042 30.3163805,30.167997 C30.3163805,31.3528897 30.7226295,32.3685123 31.5351276,33.2148647 C31.8736687,33.5534058 32.2629901,33.8242382 32.7030935,34.0273628 C32.973926,34.1627794 33.0924158,34.3659039 33.0585614,34.6367363 C32.9908535,35.2461099 32.7369479,35.7708479 32.2968445,36.2109513 L32.09372,36.4140758 C31.8567411,36.6172003 31.619763,36.6510547 31.3827842,36.5156381 C30.7057027,36.177097 30.0963292,35.7369944 29.5546635,35.1953287 C28.7083111,34.3489763 28.1158651,33.3587443 27.777324,32.2246327 C27.4387829,31.0905211 27.3795388,29.9479457 27.5995901,28.7969065 C27.8196414,27.6458673 28.3020621,26.6133179 29.0468522,25.6992576 C29.2161224,25.4961331 29.9439858,24.7513429 31.2304408,23.4648879 L33.3632482,21.3320805 C34.2773085,20.4180202 35.3437122,19.8001829 36.5624593,19.4785693 C37.7812064,19.1569558 38.9999535,19.1569558 40.2187006,19.4785693 C41.4374477,19.8001829 42.5038514,20.4180202 43.4179117,21.3320805 Z" transform="translate(-19 -19)"/>
</svg>
