<svg xmlns="http://www.w3.org/2000/svg" width="31" height="24" viewBox="0 0 31 24">
  <path fill="#FFF" fill-rule="evenodd" d="M46.3124322,20.8750504 C46.5155567,20.8750504 46.7017544,20.9512221 46.8710246,21.1035654 C47.0402948,21.2559088 47.1249303,21.4505696 47.1249303,21.6875484 L47.1249303,39.257819 C47.1249303,39.5963602 47.0318318,39.9010469 46.8456341,40.1718794 C46.6594363,40.4427118 46.4139945,40.6458363 46.1093077,40.7812529 L38.3905761,43.4726527 C37.7134946,43.6757773 37.0364124,43.6757773 36.3593309,43.4726527 L27.6249768,40.3750039 L18.9921848,43.574215 C18.8906226,43.6080693 18.7890603,43.6249961 18.6874981,43.6249961 C18.4843735,43.6249961 18.2981758,43.5488244 18.1289056,43.396481 C17.9596355,43.2441377 17.875,43.0494769 17.875,42.8124981 L17.875,25.2422275 C17.875,24.9036863 17.9680985,24.5989996 18.1542962,24.3281671 C18.3404939,24.0573347 18.5859358,23.8542102 18.8906226,23.7187936 L26.6093542,21.0273938 C26.9478953,20.9258315 27.2864356,20.8750504 27.6249768,20.8750504 C27.9635179,20.8750504 28.3020582,20.9258315 28.6405993,21.0273938 L37.3749535,24.1250426 L46.0077454,20.9258315 C46.1093077,20.8919772 46.2108699,20.8750504 46.3124322,20.8750504 Z M29.2499729,23.8203558 L29.2499729,38.3437587 L35.7499574,40.6796906 L35.7499574,26.1562878 L29.2499729,23.8203558 Z M20.3124942,40.4765661 L26.8124787,38.0898531 L26.8124787,23.5664502 L20.3124942,25.8008199 L20.3124942,40.4765661 Z M44.6874361,38.6992266 L44.6874361,24.0234804 L38.1874516,26.4101934 L38.1874516,40.9335963 L44.6874361,38.6992266 Z" transform="translate(-17 -20)"/>
</svg>
