<svg xmlns="http://www.w3.org/2000/svg" width="31" height="24" viewBox="0 0 31 24">
  <path fill="#FFF" fill-rule="evenodd" d="M46.3124322,20.8750504 C46.5494111,20.8750504 46.7440718,20.9512221 46.8964152,21.1035654 C47.0487586,21.2559088 47.1249303,21.4505696 47.1249303,21.6875484 L47.1249303,42.8124981 C47.1249303,43.0494769 47.0487586,43.2441377 46.8964152,43.396481 C46.7440718,43.5488244 46.5494111,43.6249961 46.3124322,43.6249961 L45.4999341,43.6249961 C45.2629553,43.6249961 45.0682945,43.5488244 44.9159512,43.396481 C44.7636078,43.2441377 44.6874361,43.0494769 44.6874361,42.8124981 L44.6874361,42.1523434 L35.5468329,40.019536 C35.2760004,41.0690129 34.7089442,41.9322921 33.845665,42.6093735 C32.9823859,43.286455 31.9921538,43.6249961 30.874969,43.6249961 C29.5208053,43.6249961 28.3697669,43.1510392 27.4218522,42.2031245 C26.4739376,41.2552099 25.9999806,40.1041714 25.9999806,38.7500077 C25.9999806,38.5468832 26.033835,38.2421965 26.1015429,37.8359474 L20.2617131,36.5156381 C20.2278587,36.6849082 20.143224,36.8287886 20.0078074,36.9472777 C19.8723908,37.0657667 19.7031206,37.1250116 19.4999961,37.1250116 L18.6874981,37.1250116 C18.4505192,37.1250116 18.2558585,37.0488399 18.1035151,36.8964965 C17.9511717,36.7441532 17.875,36.5494924 17.875,36.3125136 L17.875,28.1875329 C17.875,27.9505541 17.9511717,27.7558933 18.1035151,27.6035499 C18.2558585,27.4512066 18.4505192,27.3750349 18.6874981,27.3750349 L19.4999961,27.3750349 C19.7031206,27.3750349 19.8723908,27.4342798 20.0078074,27.5527688 C20.143224,27.6712579 20.2278587,27.8151382 20.2617131,27.9844084 L44.6874361,22.3477031 L44.6874361,21.6875484 C44.6874361,21.4505696 44.7636078,21.2559088 44.9159512,21.1035654 C45.0682945,20.9512221 45.2629553,20.8750504 45.4999341,20.8750504 L46.3124322,20.8750504 Z M30.874969,41.1875019 C31.4166346,41.1875019 31.8990554,41.0266948 32.3222312,40.7050812 C32.745407,40.3834677 33.0416308,39.9856816 33.2109009,39.5117247 L28.4882559,38.3945398 L28.4374748,38.7500077 C28.4374748,39.4270892 28.6744537,40.0026092 29.1484106,40.4765661 C29.6223676,40.9505231 30.1978875,41.1875019 30.874969,41.1875019 Z M20.3124942,33.9765816 L44.6874361,39.6640681 L44.6874361,24.8359784 L20.3124942,30.4726837 L20.3124942,33.9765816 Z" transform="translate(-17 -20)"/>
</svg>
