<svg xmlns="http://www.w3.org/2000/svg" width="27" height="26" viewBox="0 0 27 26">
  <path fill="#FFF" fill-rule="evenodd" d="M32.499969,19.6563033 C34.768193,19.6563033 36.8671461,20.2233595 38.796829,21.3574711 C40.7265119,22.4915827 42.2584095,24.0234804 43.3925212,25.9531633 C44.5266328,27.8828462 45.093689,29.9817992 45.093689,32.2500232 C45.093689,34.5182473 44.5266328,36.6172003 43.3925212,38.5468832 C42.2584095,40.4765661 40.7265119,42.0084638 38.796829,43.1425754 C36.8671461,44.276687 34.768193,44.8437432 32.499969,44.8437432 C30.231745,44.8437432 28.1327919,44.276687 26.203109,43.1425754 C24.2734261,42.0084638 22.7415285,40.4765661 21.6074169,38.5468832 C20.4733052,36.6172003 19.906249,34.5182473 19.906249,32.2500232 C19.906249,29.9817992 20.4733052,27.8828462 21.6074169,25.9531633 C22.7415285,24.0234804 24.2734261,22.4915827 26.203109,21.3574711 C28.1327919,20.2233595 30.231745,19.6563033 32.499969,19.6563033 Z M32.499969,42.406249 C34.3280896,42.406249 36.0207937,41.9492189 37.5780819,41.0351586 C39.1353701,40.1210982 40.371044,38.8854244 41.2851043,37.3281361 C42.1991646,35.7708479 42.6561948,34.0781439 42.6561948,32.2500232 C42.6561948,30.4219026 42.1991646,28.7291986 41.2851043,27.1719104 C40.371044,25.6146221 39.1353701,24.3789483 37.5780819,23.4648879 C36.0207937,22.5508276 34.3280896,22.0937975 32.499969,22.0937975 C30.6718484,22.0937975 28.9791443,22.5508276 27.4218561,23.4648879 C25.8645679,24.3789483 24.628894,25.6146221 23.7148337,27.1719104 C22.8007734,28.7291986 22.3437432,30.4219026 22.3437432,32.2500232 C22.3437432,34.0781439 22.8007734,35.7708479 23.7148337,37.3281361 C24.628894,38.8854244 25.8645679,40.1210982 27.4218561,41.0351586 C28.9791443,41.9492189 30.6718484,42.406249 32.499969,42.406249 Z M37.9335498,29.4570612 C37.9335498,30.3711215 37.6627174,31.1497652 37.1210517,31.7929931 C36.7825106,32.1653878 36.2239182,32.5716368 35.4452745,33.0117402 C35.0390255,33.248719 34.768193,33.434916 34.6327764,33.5703326 C34.3957976,33.7396028 34.2773085,33.9427273 34.2773085,34.1797061 L34.2773085,34.4843929 C34.2773085,34.6536631 34.2180636,34.7975435 34.0995746,34.9160325 C33.9810855,35.0345216 33.8372051,35.0937665 33.667935,35.0937665 L31.332003,35.0937665 C31.1627329,35.0937665 31.0188525,35.0345216 30.9003634,34.9160325 C30.7818744,34.7975435 30.7226295,34.6536631 30.7226295,34.4843929 L30.7226295,34.0273628 C30.7226295,33.248719 30.9934619,32.5885644 31.5351276,32.0468987 C31.8398143,31.742212 32.3476256,31.3867441 33.0585614,30.980495 L33.1601237,30.9297139 C33.667935,30.6250271 34.0234029,30.3880483 34.2265274,30.2187781 C34.4635062,29.9817992 34.5819953,29.7109668 34.5819953,29.40628 C34.5819953,29.000031 34.370407,28.6614899 33.9472312,28.3906574 C33.5240554,28.119825 33.0500976,27.9844084 32.5253596,27.9844084 C32.0006215,27.9844084 31.5520543,28.1028975 31.1796597,28.3398763 C30.8749729,28.5430008 30.5025782,28.9323231 30.0624748,29.5078423 C29.9609126,29.6094045 29.8339597,29.6771125 29.6816164,29.7109668 C29.529273,29.7448211 29.3853934,29.7109668 29.2499768,29.6094045 L27.8281051,28.5430008 C27.6926885,28.4414386 27.6165168,28.306022 27.5995901,28.1367518 C27.5826633,27.9674816 27.6080538,27.8151382 27.6757618,27.6797216 C28.3189896,26.7656613 29.0468522,26.0801161 29.8593503,25.6230859 C30.6718484,25.1660558 31.6536166,24.9375407 32.8046558,24.9375407 C33.6171538,24.9375407 34.4296519,25.1406652 35.24215,25.5469142 C36.054648,25.9531633 36.7063389,26.4948289 37.1972234,27.1719104 C37.6881079,27.8489918 37.9335498,28.6107087 37.9335498,29.4570612 Z M34.6327764,37.9375097 C34.6327764,38.5130289 34.4211881,39.0123772 33.9980123,39.435553 C33.5748365,39.8587288 33.0754882,40.0703171 32.499969,40.0703171 C31.9244498,40.0703171 31.4251015,39.8587288 31.0019257,39.435553 C30.5787499,39.0123772 30.3671616,38.5130289 30.3671616,37.9375097 C30.3671616,37.3619905 30.5787499,36.8626422 31.0019257,36.4394664 C31.4251015,36.0162906 31.9244498,35.8047023 32.499969,35.8047023 C33.0754882,35.8047023 33.5748365,36.0162906 33.9980123,36.4394664 C34.4211881,36.8626422 34.6327764,37.3619905 34.6327764,37.9375097 Z" transform="translate(-19 -19)"/>
</svg>
